<?xml version="1.0" standalone="no"?>
<!DOCTYPE svg PUBLIC "-//W3C//DTD SVG 20010904//EN"
 "http://www.w3.org/TR/2001/REC-SVG-20010904/DTD/svg10.dtd">
<svg version="1.0" xmlns="http://www.w3.org/2000/svg"
 width="417.000000pt" height="121.000000pt" viewBox="0 0 417.000000 121.000000"
 preserveAspectRatio="xMidYMid meet">

<g transform="translate(0.000000,121.000000) scale(0.100000,-0.100000)"
fill="#000000" stroke="none">
<path d="M481 984 c-114 -18 -154 -33 -142 -53 8 -12 20 -12 87 3 195 43 503
42 682 -1 67 -16 74 -16 88 -1 15 15 14 17 -22 27 -144 41 -502 54 -693 25z"/>
<path d="M515 914 c-11 -3 -46 -9 -77 -16 -32 -6 -58 -14 -58 -19 0 -11 71
-59 88 -59 8 0 22 10 31 22 14 16 32 23 77 26 l59 4 65 -326 c35 -179 67 -322
71 -318 3 4 34 150 69 325 l63 317 38 0 c46 0 90 -15 107 -38 12 -16 16 -15
58 8 25 14 45 30 46 35 0 19 -87 36 -213 42 l-125 6 -23 -29 -23 -29 -22 28
c-21 26 -25 27 -116 26 -52 -1 -104 -3 -115 -5z"/>
<path d="M1310 700 c16 -30 43 -40 104 -40 l55 0 3 -132 3 -133 30 0 30 0 3
133 3 132 55 0 c61 0 88 10 104 40 11 20 7 20 -195 20 -202 0 -206 0 -195 -20z"/>
<path d="M1870 713 c0 -13 14 -28 40 -46 19 -14 48 -17 138 -17 120 0 161 11
182 50 11 20 7 20 -175 20 -102 0 -185 -3 -185 -7z"/>
<path d="M2420 625 l0 -95 145 0 145 0 0 -35 0 -35 -114 0 c-99 0 -117 -3
-140 -21 -50 -40 -37 -44 144 -45 l170 -1 0 98 0 99 -146 0 -145 0 3 33 3 32
120 3 c106 2 122 5 142 24 13 12 23 25 23 30 0 4 -79 8 -175 8 l-175 0 0 -95z"/>
<path d="M2960 560 l0 -160 145 0 146 0 27 28 27 27 -142 3 -143 3 0 129 0
130 -30 0 -30 0 0 -160z"/>
<path d="M3480 700 c18 -34 45 -40 183 -40 127 0 135 1 155 23 12 13 22 26 22
30 0 4 -83 7 -185 7 -182 0 -185 0 -175 -20z"/>
<path d="M1870 581 c0 -5 12 -19 26 -30 24 -19 40 -21 158 -21 133 1 144 3
175 43 13 16 3 17 -173 17 -108 0 -186 -4 -186 -9z"/>
<path d="M3480 495 l0 -95 30 0 c29 0 29 1 32 63 l3 62 113 3 112 3 0 -66 0
-65 30 0 30 0 0 95 0 95 -175 0 -175 0 0 -95z"/>
<path d="M1870 452 c0 -5 10 -18 23 -30 22 -20 34 -22 156 -22 136 0 163 6
181 40 10 20 7 20 -175 20 -102 0 -185 -4 -185 -8z"/>
</g>
</svg>
